<svg xmlns="http://www.w3.org/2000/svg" width="900" height="500" viewBox="0 0 900 500">
<title>Residual history</title>
<rect width="100%" height="100%" fill="white"/>
<rect x="60.0" y="60.0" width="780.0" height="380.0" fill="none" stroke="black" stroke-width="2"/>
<polyline fill="none" stroke="black" stroke-width="2" points="60.00,60.00 60.21,75.94 60.42,86.75 60.63,91.88 60.84,98.49 61.05,101.98 61.26,105.27 61.48,108.34 61.69,111.20 61.90,113.86 62.11,116.35 62.32,118.68 62.53,120.17 62.74,121.63 62.95,123.06 63.16,124.45 63.37,125.81 63.58,127.13 63.79,128.40 64.01,129.66 64.22,130.86 64.43,132.05 64.64,133.17 64.85,134.28 65.06,135.12 65.27,135.91 65.48,136.74 65.69,137.50 65.90,138.31 66.11,139.05 66.32,139.84 66.54,140.55 66.75,141.33 66.96,142.02 67.17,142.77 67.38,143.43 67.59,144.16 67.80,144.81 68.01,145.52 68.22,146.14 68.43,146.69 68.64,147.26 68.85,147.73 69.06,148.29 69.28,148.76 69.49,149.31 69.70,149.77 69.91,150.31 70.12,150.76 70.33,151.30 70.54,151.73 70.75,152.26 70.96,152.69 71.17,153.20 71.38,153.62 71.59,154.13 71.81,154.54 72.02,155.04 72.23,155.44 72.44,155.93 72.65,156.32 72.86,156.67 73.07,157.09 73.28,157.40 73.49,157.81 73.70,158.12 73.91,158.53 74.12,158.84 74.34,159.24 74.55,159.54 74.76,159.93 74.97,160.23 75.18,160.62 75.39,160.92 75.60,161.30 75.81,161.59 76.02,161.97 76.23,162.26 76.44,162.63 76.65,162.91 76.86,163.28 77.08,163.56 77.29,163.92 77.50,164.19 77.71,164.55 77.92,164.82 78.13,165.09 78.34,165.41 78.55,165.63 78.76,165.94 78.97,166.17 79.18,166.47 79.39,166.70 79.61,167.00 79.82,167.22 80.03,167.52 80.24,167.74 80.45,168.03 80.66,168.25 80.87,168.54 81.08,168.75 81.29,169.04 81.50,169.25 81.71,169.54 81.92,169.75 82.14,170.03 82.35,170.24 82.56,170.52 82.77,170.72 82.98,171.00 83.19,171.20 83.40,171.47 83.61,171.68 83.82,171.94 84.03,172.15 84.24,172.40 84.45,172.61 84.66,172.82 84.88,173.06 85.09,173.23 85.30,173.47 85.51,173.64 85.72,173.88 85.93,174.04 86.14,174.28 86.35,174.45 86.56,174.68 86.77,174.85 86.98,175.08 87.19,175.24 87.41,175.47 87.62,175.64 87.83,175.86 88.04,176.03 88.25,176.25 88.46,176.41 88.67,176.64 88.88,176.80 89.09,177.02 89.30,177.18 89.51,177.40 89.72,177.56 89.94,177.78 90.15,177.94 90.36,178.15 90.57,178.31 90.78,178.52 90.99,178.68 91.20,178.89 91.41,179.05 91.62,179.26 91.83,179.42 92.04,179.62 92.25,179.78 92.46,179.99 92.68,180.14 92.89,180.34 93.10,180.50 93.31,180.67 93.52,180.86 93.73,181.01 93.94,181.20 94.15,181.34 94.36,181.53 94.57,181.67 94.78,181.86 94.99,181.99 95.21,182.18 95.42,182.32 95.63,182.51 95.84,182.65 96.05,182.83 96.26,182.97 96.47,183.15 96.68,183.29 96.89,183.48 97.10,183.62 97.31,183.80 97.52,183.94 97.74,184.11 97.95,184.26 98.16,184.43 98.37,184.57 98.58,184.75 98.79,184.89 99.00,185.07 99.21,185.21 99.42,185.38 99.63,185.52 99.84,185.69 100.05,185.83 100.26,186.01 100.48,186.15 100.69,186.32 100.90,186.46 101.11,186.63 101.32,186.77 101.53,186.94 101.74,187.08 101.95,187.25 102.16,187.39 102.37,187.55 102.58,187.69 102.79,187.86 103.01,188.00 103.22,188.17 103.43,188.31 103.64,188.47 103.85,188.61 104.06,188.77 104.27,188.91 104.48,189.08 104.69,189.22 104.90,189.38 105.11,189.52 105.32,189.68 105.54,189.82 105.75,189.98 105.96,190.12 106.17,190.28 106.38,190.42 106.59,190.58 106.80,190.72 107.01,190.87 107.22,191.02 107.43,191.17 107.64,191.28 107.85,191.40 108.06,191.50 108.28,191.62 108.49,191.72 108.70,191.83 108.91,191.93 109.12,192.05 109.33,192.15 109.54,192.26 109.75,192.36 109.96,192.47 110.17,192.57 110.38,192.68 110.59,192.78 110.81,192.89 111.02,192.99 111.23,193.10 111.44,193.20 111.65,193.31 111.86,193.41 112.07,193.52 112.28,193.62 112.49,193.72 112.70,193.82 112.91,193.92 113.12,194.02 113.34,194.13 113.55,194.23 113.76,194.33 113.97,194.43 114.18,194.53 114.39,194.63 114.60,194.73 114.81,194.83 115.02,194.93 115.23,195.03 115.44,195.13 115.65,195.23 115.86,195.33 116.08,195.43 116.29,195.52 116.50,195.62 116.71,195.72 116.92,195.82 117.13,195.91 117.34,196.01 117.55,196.10 117.76,196.21 117.97,196.30 118.18,196.40 118.39,196.49 118.61,196.59 118.82,196.68 119.03,196.78 119.24,196.87 119.45,196.97 119.66,197.06 119.87,197.15 120.08,197.24 120.29,197.33 120.50,197.41 120.71,197.50 120.92,197.59 121.14,197.68 121.35,197.77 121.56,197.85 121.77,197.94 121.98,198.03 122.19,198.12 122.40,198.20 122.61,198.29 122.82,198.38 123.03,198.46 123.24,198.55 123.45,198.64 123.66,198.72 123.88,198.81 124.09,198.89 124.30,198.98 124.51,199.06 124.72,199.15 124.93,199.23 125.14,199.32 125.35,199.40 125.56,199.49 125.77,199.57 125.98,199.66 126.19,199.74 126.41,199.83 126.62,199.91 126.83,200.00 127.04,200.08 127.25,200.17 127.46,200.24 127.67,200.33 127.88,200.41 128.09,200.50 128.30,200.58 128.51,200.67 128.72,200.74 128.94,200.83 129.15,200.91 129.36,201.00 129.57,201.07 129.78,201.16 129.99,201.24 130.20,201.33 130.41,201.40 130.62,201.49 130.83,201.56 131.04,201.65 131.25,201.73 131.46,201.82 131.68,201.89 131.89,201.98 132.10,202.05 132.31,202.14 132.52,202.21 132.73,202.30 132.94,202.37 133.15,202.46 133.36,202.53 133.57,202.62 133.78,202.69 133.99,202.78 134.21,202.85 134.42,202.93 134.63,203.01 134.84,203.08 135.05,203.16 135.26,203.23 135.47,203.31 135.68,203.38 135.89,203.46 136.10,203.53 136.31,203.61 136.52,203.68 136.74,203.76 136.95,203.83 137.16,203.92 137.37,203.98 137.58,204.07 137.79,204.13 138.00,204.22 138.21,204.28 138.42,204.37 138.63,204.43 138.84,204.51 139.05,204.58 139.26,204.66 139.48,204.73 139.69,204.81 139.90,204.88 140.11,204.96 140.32,205.03 140.53,205.11 140.74,205.18 140.95,205.26 141.16,205.32 141.37,205.41 141.58,205.47 141.79,205.56 142.01,205.62 142.22,205.70 142.43,205.77 142.64,205.85 142.85,205.91 143.06,206.00 143.27,206.06 143.48,206.15 143.69,206.21 143.90,206.29 144.11,206.35 144.32,206.44 144.54,206.50 144.75,206.59 144.96,206.65 145.17,206.73 145.38,206.79 145.59,206.88 145.80,206.94 146.01,207.02 146.22,207.08 146.43,207.17 146.64,207.23 146.85,207.32 147.06,207.37 147.28,207.46 147.49,207.52 147.70,207.61 147.91,207.66 148.12,207.75 148.33,207.81 148.54,207.90 148.75,207.95 148.96,208.04 149.17,208.10 149.38,208.18 149.59,208.24 149.81,208.33 150.02,208.39 150.23,208.47 150.44,208.53 150.65,208.61 150.86,208.68 151.07,208.75 151.28,208.82 151.49,208.88 151.70,208.96 151.91,209.02 152.12,209.10 152.34,209.16 152.55,209.24 152.76,209.30 152.97,209.38 153.18,209.44 153.39,209.52 153.60,209.58 153.81,209.66 154.02,209.71 154.23,209.80 154.44,209.85 154.65,209.93 154.86,209.99 155.08,210.07 155.29,210.13 155.50,210.21 155.71,210.27 155.92,210.35 156.13,210.40 156.34,210.49 156.55,210.54 156.76,210.63 156.97,210.68 157.18,210.76 157.39,210.82 157.61,210.90 157.82,210.95 158.03,211.04 158.24,211.09 158.45,211.18 158.66,211.23 158.87,211.32 159.08,211.37 159.29,211.45 159.50,211.50 159.71,211.59 159.92,211.64 160.14,211.73 160.35,211.78 160.56,211.87 160.77,211.92 160.98,212.00 161.19,212.05 161.40,212.14 161.61,212.19 161.82,212.28 162.03,212.33 162.24,212.42 162.45,212.47 162.66,212.55 162.88,212.60 163.09,212.69 163.30,212.74 163.51,212.83 163.72,212.88 163.93,212.97 164.14,213.01 164.35,213.10 164.56,213.15 164.77,213.24 164.98,213.29 165.19,213.38 165.41,213.43 165.62,213.52 165.83,213.56 166.04,213.65 166.25,213.70 166.46,213.79 166.67,213.84 166.88,213.93 167.09,213.98 167.30,214.07 167.51,214.11 167.72,214.20 167.94,214.25 168.15,214.34 168.36,214.39 168.57,214.48 168.78,214.52 168.99,214.61 169.20,214.66 169.41,214.75 169.62,214.80 169.83,214.89 170.04,214.93 170.25,215.03 170.46,215.07 170.68,215.16 170.89,215.21 171.10,215.30 171.31,215.35 171.52,215.43 171.73,215.48 171.94,215.57 172.15,215.62 172.36,215.70 172.57,215.76 172.78,215.84 172.99,215.89 173.21,215.97 173.42,216.03 173.63,216.10 173.84,216.17 174.05,216.24 174.26,216.31 174.47,216.37 174.68,216.44 174.89,216.50 175.10,216.58 175.31,216.64 175.52,216.72 175.74,216.77 175.95,216.85 176.16,216.91 176.37,216.99 176.58,217.04 176.79,217.13 177.00,217.17 177.21,217.26 177.42,217.31 177.63,217.40 177.84,217.44 178.05,217.53 178.26,217.58 178.48,217.67 178.69,217.71 178.90,217.80 179.11,217.85 179.32,217.94 179.53,217.98 179.74,218.07 179.95,218.11 180.16,218.20 180.37,218.25 180.58,218.34 180.79,218.38 181.01,218.47 181.22,218.52 181.43,218.61 181.64,218.65 181.85,218.74 182.06,218.79 182.27,218.88 182.48,218.92 182.69,219.01 182.90,219.06 183.11,219.15 183.32,219.19 183.54,219.28 183.75,219.32 183.96,219.42 184.17,219.46 184.38,219.55 184.59,219.59 184.80,219.69 185.01,219.73 185.22,219.82 185.43,219.86 185.64,219.96 185.85,220.00 186.06,220.09 186.28,220.13 186.49,220.23 186.70,220.27 186.91,220.36 187.12,220.40 187.33,220.50 187.54,220.54 187.75,220.63 187.96,220.67 188.17,220.77 188.38,220.81 188.59,220.90 188.81,220.94 189.02,221.04 189.23,221.08 189.44,221.17 189.65,221.22 189.86,221.31 190.07,221.35 190.28,221.45 190.49,221.49 190.70,221.58 190.91,221.62 191.12,221.72 191.34,221.76 191.55,221.85 191.76,221.89 191.97,221.99 192.18,222.03 192.39,222.12 192.60,222.16 192.81,222.26 193.02,222.30 193.23,222.39 193.44,222.43 193.65,222.53 193.86,222.57 194.08,222.67 194.29,222.71 194.50,222.80 194.71,222.84 194.92,222.94 195.13,222.98 195.34,223.07 195.55,223.11 195.76,223.21 195.97,223.25 196.18,223.35 196.39,223.38 196.61,223.48 196.82,223.52 197.03,223.62 197.24,223.66 197.45,223.75 197.66,223.79 197.87,223.89 198.08,223.93 198.29,224.03 198.50,224.07 198.71,224.16 198.92,224.20 199.14,224.30 199.35,224.34 199.56,224.44 199.77,224.47 199.98,224.57 200.19,224.61 200.40,224.71 200.61,224.75 200.82,224.84 201.03,224.88 201.24,224.98 201.45,225.02 201.66,225.12 201.88,225.16 202.09,225.25 202.30,225.29 202.51,225.39 202.72,225.43 202.93,225.53 203.14,225.57 203.35,225.66 203.56,225.70 203.77,225.80 203.98,225.84 204.19,225.94 204.41,225.98 204.62,226.07 204.83,226.11 205.04,226.21 205.25,226.25 205.46,226.35 205.67,226.39 205.88,226.48 206.09,226.52 206.30,226.62 206.51,226.66 206.72,226.76 206.94,226.80 207.15,226.89 207.36,226.93 207.57,227.03 207.78,227.07 207.99,227.17 208.20,227.21 208.41,227.30 208.62,227.34 208.83,227.44 209.04,227.48 209.25,227.58 209.46,227.62 209.68,227.71 209.89,227.76 210.10,227.85 210.31,227.89 210.52,227.98 210.73,228.03 210.94,228.12 211.15,228.17 211.36,228.26 211.57,228.30 211.78,228.39 211.99,228.44 212.21,228.53 212.42,228.58 212.63,228.66 212.84,228.72 213.05,228.80 213.26,228.85 213.47,228.94 213.68,228.99 213.89,229.07 214.10,229.13 214.31,229.21 214.52,229.27 214.74,229.35 214.95,229.40 215.16,229.48 215.37,229.54 215.58,229.62 215.79,229.68 216.00,229.75 216.21,229.82 216.42,229.89 216.63,229.95 216.84,230.03 217.05,230.09 217.26,230.16 217.48,230.23 217.69,230.30 217.90,230.37 218.11,230.44 218.32,230.51 218.53,230.57 218.74,230.64 218.95,230.71 219.16,230.78 219.37,230.85 219.58,230.92 219.79,230.98 220.01,231.06 220.22,231.12 220.43,231.19 220.64,231.26 220.85,231.33 221.06,231.39 221.27,231.47 221.48,231.53 221.69,231.61 221.90,231.67 222.11,231.75 222.32,231.81 222.54,231.89 222.75,231.94 222.96,232.02 223.17,232.08 223.38,232.16 223.59,232.22 223.80,232.30 224.01,232.35 224.22,232.44 224.43,232.49 224.64,232.58 224.85,232.63 225.06,232.71 225.28,232.77 225.49,232.85 225.70,232.90 225.91,232.99 226.12,233.04 226.33,233.13 226.54,233.18 226.75,233.27 226.96,233.32 227.17,233.41 227.38,233.45 227.59,233.55 227.81,233.59 228.02,233.68 228.23,233.73 228.44,233.82 228.65,233.87 228.86,233.96 229.07,234.00 229.28,234.10 229.49,234.14 229.70,234.24 229.91,234.28 230.12,234.38 230.34,234.42 230.55,234.52 230.76,234.55 230.97,234.65 231.18,234.69 231.39,234.79 231.60,234.83 231.81,234.93 232.02,234.97 232.23,235.07 232.44,235.11 232.65,235.21 232.86,235.24 233.08,235.35 233.29,235.38 233.50,235.48 233.71,235.52 233.92,235.62 234.13,235.66 234.34,235.76 234.55,235.80 234.76,235.90 234.97,235.93 235.18,236.04 235.39,236.07 235.61,236.18 235.82,236.21 236.03,236.31 236.24,236.35 236.45,236.45 236.66,236.49 236.87,236.59 237.08,236.63 237.29,236.73 237.50,236.76 237.71,236.87 237.92,236.90 238.14,237.01 238.35,237.04 238.56,237.14 238.77,237.18 238.98,237.28 239.19,237.32 239.40,237.42 239.61,237.46 239.82,237.56 240.03,237.60 240.24,237.70 240.45,237.73 240.66,237.84 240.88,237.87 241.09,237.98 241.30,238.01 241.51,238.11 241.72,238.15 241.93,238.25 242.14,238.29 242.35,238.39 242.56,238.43 242.77,238.53 242.98,238.57 243.19,238.67 243.41,238.70 243.62,238.81 243.83,238.84 244.04,238.95 244.25,238.98 244.46,239.09 244.67,239.12 244.88,239.23 245.09,239.26 245.30,239.36 245.51,239.40 245.72,239.50 245.94,239.54 246.15,239.64 246.36,239.68 246.57,239.78 246.78,239.82 246.99,239.92 247.20,239.95 247.41,240.06 247.62,240.09 247.83,240.20 248.04,240.23 248.25,240.34 248.46,240.37 248.68,240.48 248.89,240.51 249.10,240.62 249.31,240.65 249.52,240.76 249.73,240.79 249.94,240.89 250.15,240.93 250.36,241.03 250.57,241.07 250.78,241.17 250.99,241.21 251.21,241.31 251.42,241.35 251.63,241.45 251.84,241.49 252.05,241.59 252.26,241.62 252.47,241.73 252.68,241.76 252.89,241.87 253.10,241.90 253.31,242.01 253.52,242.04 253.74,242.15 253.95,242.18 254.16,242.29 254.37,242.32 254.58,242.43 254.79,242.46 255.00,242.57 255.21,242.60 255.42,242.71 255.63,242.74 255.84,242.85 256.05,242.88 256.26,242.99 256.48,243.02 256.69,243.13 256.90,243.16 257.11,243.27 257.32,243.30 257.53,243.40 257.74,243.44 257.95,243.54 258.16,243.58 258.37,243.68 258.58,243.72 258.79,243.82 259.01,243.86 259.22,243.96 259.43,244.00 259.64,244.10 259.85,244.14 260.06,244.24 260.27,244.28 260.48,244.38 260.69,244.42 260.90,244.52 261.11,244.56 261.32,244.66 261.54,244.70 261.75,244.80 261.96,244.84 262.17,244.94 262.38,244.98 262.59,245.08 262.80,245.12 263.01,245.22 263.22,245.26 263.43,245.36 263.64,245.40 263.85,245.50 264.06,245.54 264.28,245.64 264.49,245.68 264.70,245.78 264.91,245.82 265.12,245.92 265.33,245.96 265.54,246.06 265.75,246.10 265.96,246.20 266.17,246.24 266.38,246.34 266.59,246.38 266.81,246.48 267.02,246.52 267.23,246.62 267.44,246.66 267.65,246.76 267.86,246.80 268.07,246.90 268.28,246.94 268.49,247.04 268.70,247.08 268.91,247.18 269.12,247.22 269.34,247.32 269.55,247.36 269.76,247.46 269.97,247.50 270.18,247.60 270.39,247.64 270.60,247.74 270.81,247.78 271.02,247.88 271.23,247.92 271.44,248.02 271.65,248.06 271.86,248.16 272.08,248.20 272.29,248.30 272.50,248.34 272.71,248.45 272.92,248.48 273.13,248.59 273.34,248.62 273.55,248.73 273.76,248.76 273.97,248.87 274.18,248.90 274.39,249.01 274.61,249.04 274.82,249.15 275.03,249.18 275.24,249.29 275.45,249.32 275.66,249.43 275.87,249.46 276.08,249.57 276.29,249.60 276.50,249.71 276.71,249.74 276.92,249.85 277.14,249.88 277.35,249.99 277.56,250.02 277.77,250.13 277.98,250.16 278.19,250.27 278.40,250.30 278.61,250.41 278.82,250.44 279.03,250.55 279.24,250.59 279.45,250.69 279.66,250.73 279.88,250.83 280.09,250.87 280.30,250.97 280.51,251.01 280.72,251.11 280.93,251.15 281.14,251.25 281.35,251.29 281.56,251.40 281.77,251.43 281.98,251.54 282.19,251.57 282.41,251.68 282.62,251.71 282.83,251.82 283.04,251.85 283.25,251.96 283.46,251.99 283.67,252.10 283.88,252.13 284.09,252.24 284.30,252.27 284.51,252.38 284.72,252.41 284.94,252.52 285.15,252.56 285.36,252.66 285.57,252.70 285.78,252.80 285.99,252.84 286.20,252.94 286.41,252.98 286.62,253.08 286.83,253.12 287.04,253.23 287.25,253.26 287.46,253.37 287.68,253.40 287.89,253.51 288.10,253.54 288.31,253.65 288.52,253.68 288.73,253.79 288.94,253.82 289.15,253.93 289.36,253.96 289.57,254.07 289.78,254.10 289.99,254.21 290.21,254.25 290.42,254.35 290.63,254.39 290.84,254.49 291.05,254.53 291.26,254.63 291.47,254.67 291.68,254.78 291.89,254.81 292.10,254.92 292.31,254.95 292.52,255.06 292.74,255.09 292.95,255.20 293.16,255.23 293.37,255.34 293.58,255.37 293.79,255.48 294.00,255.51 294.21,255.62 294.42,255.66 294.63,255.76 294.84,255.80 295.05,255.90 295.26,255.94 295.48,256.04 295.69,256.08 295.90,256.19 296.11,256.22 296.32,256.33 296.53,256.36 296.74,256.47 296.95,256.50 297.16,256.61 297.37,256.64 297.58,256.75 297.79,256.78 298.01,256.89 298.22,256.92 298.43,257.03 298.64,257.07 298.85,257.17 299.06,257.21 299.27,257.31 299.48,257.35 299.69,257.46 299.90,257.49 300.11,257.60 300.32,257.63 300.54,257.74 300.75,257.77 300.96,257.88 301.17,257.91 301.38,258.02 301.59,258.05 301.80,258.16 302.01,258.20 302.22,258.30 302.43,258.34 302.64,258.44 302.85,258.48 303.06,258.59 303.28,258.62 303.49,258.73 303.70,258.76 303.91,258.87 304.12,258.90 304.33,259.01 304.54,259.04 304.75,259.15 304.96,259.18 305.17,259.29 305.38,259.33 305.59,259.43 305.81,259.47 306.02,259.57 306.23,259.61 306.44,259.72 306.65,259.75 306.86,259.86 307.07,259.89 307.28,260.00 307.49,260.03 307.70,260.14 307.91,260.17 308.12,260.28 308.34,260.32 308.55,260.42 308.76,260.46 308.97,260.56 309.18,260.60 309.39,260.71 309.60,260.74 309.81,260.85 310.02,260.88 310.23,260.99 310.44,261.02 310.65,261.13 310.86,261.16 311.08,261.27 311.29,261.30 311.50,261.41 311.71,261.45 311.92,261.55 312.13,261.59 312.34,261.70 312.55,261.73 312.76,261.84 312.97,261.87 313.18,261.98 313.39,262.01 313.61,262.12 313.82,262.15 314.03,262.26 314.24,262.30 314.45,262.40 314.66,262.44 314.87,262.54 315.08,262.58 315.29,262.69 315.50,262.72 315.71,262.83 315.92,262.86 316.14,262.97 316.35,263.00 316.56,263.11 316.77,263.14 316.98,263.25 317.19,263.29 317.40,263.39 317.61,263.43 317.82,263.54 318.03,263.57 318.24,263.68 318.45,263.71 318.66,263.82 318.88,263.85 319.09,263.96 319.30,263.99 319.51,264.10 319.72,264.13 319.93,264.24 320.14,264.28 320.35,264.38 320.56,264.42 320.77,264.53 320.98,264.56 321.19,264.67 321.41,264.70 321.62,264.81 321.83,264.84 322.04,264.95 322.25,264.98 322.46,265.09 322.67,265.13 322.88,265.23 323.09,265.27 323.30,265.38 323.51,265.41 323.72,265.52 323.94,265.55 324.15,265.66 324.36,265.69 324.57,265.80 324.78,265.83 324.99,265.94 325.20,265.98 325.41,266.08 325.62,266.12 325.83,266.23 326.04,266.26 326.25,266.37 326.46,266.40 326.68,266.51 326.89,266.54 327.10,266.65 327.31,266.68 327.52,266.79 327.73,266.83 327.94,266.93 328.15,266.97 328.36,267.08 328.57,267.11 328.78,267.22 328.99,267.25 329.21,267.36 329.42,267.39 329.63,267.50 329.84,267.53 330.05,267.64 330.26,267.68 330.47,267.78 330.68,267.82 330.89,267.93 331.10,267.96 331.31,268.07 331.52,268.10 331.74,268.21 331.95,268.24 332.16,268.35 332.37,268.39 332.58,268.49 332.79,268.53 333.00,268.64 333.21,268.67 333.42,268.78 333.63,268.81 333.84,268.92 334.05,268.95 334.26,269.06 334.48,269.09 334.69,269.20 334.90,269.24 335.11,269.34 335.32,269.38 335.53,269.49 335.74,269.52 335.95,269.63 336.16,269.66 336.37,269.77 336.58,269.80 336.79,269.91 337.01,269.94 337.22,270.05 337.43,270.09 337.64,270.20 337.85,270.23 338.06,270.34 338.27,270.37 338.48,270.48 338.69,270.51 338.90,270.62 339.11,270.65 339.32,270.76 339.54,270.80 339.75,270.90 339.96,270.94 340.17,271.05 340.38,271.08 340.59,271.19 340.80,271.22 341.01,271.33 341.22,271.36 341.43,271.47 341.64,271.51 341.85,271.61 342.06,271.65 342.28,271.76 342.49,271.79 342.70,271.90 342.91,271.93 343.12,272.04 343.33,272.07 343.54,272.18 343.75,272.21 343.96,272.32 344.17,272.36 344.38,272.47 344.59,272.50 344.81,272.61 345.02,272.64 345.23,272.75 345.44,272.78 345.65,272.89 345.86,272.92 346.07,273.03 346.28,273.07 346.49,273.18 346.70,273.21 346.91,273.32 347.12,273.35 347.34,273.46 347.55,273.49 347.76,273.60 347.97,273.63 348.18,273.74 348.39,273.78 348.60,273.88 348.81,273.92 349.02,274.03 349.23,274.06 349.44,274.17 349.65,274.20 349.86,274.31 350.08,274.34 350.29,274.45 350.50,274.49 350.71,274.59 350.92,274.63 351.13,274.74 351.34,274.77 351.55,274.88 351.76,274.91 351.97,275.02 352.18,275.05 352.39,275.16 352.61,275.20 352.82,275.30 353.03,275.34 353.24,275.45 353.45,275.48 353.66,275.59 353.87,275.62 354.08,275.73 354.29,275.76 354.50,275.87 354.71,275.91 354.92,276.01 355.14,276.05 355.35,276.16 355.56,276.19 355.77,276.30 355.98,276.33 356.19,276.44 356.40,276.47 356.61,276.58 356.82,276.62 357.03,276.72 357.24,276.76 357.45,276.87 357.66,276.90 357.88,277.01 358.09,277.04 358.30,277.15 358.51,277.18 358.72,277.29 358.93,277.33 359.14,277.43 359.35,277.47 359.56,277.58 359.77,277.61 359.98,277.72 360.19,277.75 360.41,277.86 360.62,277.89 360.83,278.00 361.04,278.04 361.25,278.15 361.46,278.18 361.67,278.29 361.88,278.32 362.09,278.43 362.30,278.46 362.51,278.57 362.72,278.60 362.94,278.71 363.15,278.75 363.36,278.86 363.57,278.89 363.78,279.00 363.99,279.03 364.20,279.14 364.41,279.17 364.62,279.28 364.83,279.31 365.04,279.42 365.25,279.46 365.46,279.57 365.68,279.60 365.89,279.71 366.10,279.74 366.31,279.85 366.52,279.88 366.73,279.99 366.94,280.03 367.15,280.13 367.36,280.17 367.57,280.28 367.78,280.31 367.99,280.42 368.21,280.45 368.42,280.56 368.63,280.59 368.84,280.70 369.05,280.74 369.26,280.84 369.47,280.88 369.68,280.99 369.89,281.02 370.10,281.13 370.31,281.16 370.52,281.27 370.74,281.30 370.95,281.41 371.16,281.45 371.37,281.56 371.58,281.59 371.79,281.70 372.00,281.73 372.21,281.84 372.42,281.87 372.63,281.98 372.84,282.01 373.05,282.12 373.26,282.16 373.48,282.27 373.69,282.30 373.90,282.41 374.11,282.44 374.32,282.55 374.53,282.58 374.74,282.69 374.95,282.73 375.16,282.83 375.37,282.87 375.58,282.98 375.79,283.01 376.01,283.12 376.22,283.15 376.43,283.26 376.64,283.29 376.85,283.40 377.06,283.44 377.27,283.55 377.48,283.58 377.69,283.69 377.90,283.72 378.11,283.83 378.32,283.86 378.54,283.97 378.75,284.00 378.96,284.11 379.17,284.15 379.38,284.26 379.59,284.29 379.80,284.40 380.01,284.43 380.22,284.54 380.43,284.57 380.64,284.68 380.85,284.72 381.06,284.83 381.28,284.86 381.49,284.97 381.70,285.00 381.91,285.11 382.12,285.14 382.33,285.25 382.54,285.28 382.75,285.39 382.96,285.43 383.17,285.54 383.38,285.57 383.59,285.68 383.81,285.71 384.02,285.82 384.23,285.85 384.44,285.96 384.65,286.00 384.86,286.10 385.07,286.14 385.28,286.25 385.49,286.28 385.70,286.39 385.91,286.42 386.12,286.53 386.34,286.56 386.55,286.67 386.76,286.71 386.97,286.82 387.18,286.85 387.39,286.96 387.60,286.99 387.81,287.10 388.02,287.13 388.23,287.24 388.44,287.28 388.65,287.38 388.86,287.42 389.08,287.53 389.29,287.56 389.50,287.67 389.71,287.70 389.92,287.81 390.13,287.84 390.34,287.95 390.55,287.99 390.76,288.10 390.97,288.13 391.18,288.24 391.39,288.27 391.61,288.38 391.82,288.41 392.03,288.52 392.24,288.56 392.45,288.66 392.66,288.70 392.87,288.81 393.08,288.84 393.29,288.95 393.50,288.98 393.71,289.09 393.92,289.12 394.14,289.23 394.35,289.27 394.56,289.38 394.77,289.41 394.98,289.52 395.19,289.55 395.40,289.66 395.61,289.69 395.82,289.80 396.03,289.84 396.24,289.95 396.45,289.98 396.66,290.09 396.88,290.12 397.09,290.23 397.30,290.26 397.51,290.37 397.72,290.41 397.93,290.51 398.14,290.55 398.35,290.66 398.56,290.69 398.77,290.80 398.98,290.83 399.19,290.94 399.41,290.97 399.62,291.08 399.83,291.12 400.04,291.23 400.25,291.26 400.46,291.37 400.67,291.40 400.88,291.51 401.09,291.54 401.30,291.65 401.51,291.69 401.72,291.79 401.94,291.83 402.15,291.94 402.36,291.97 402.57,292.08 402.78,292.11 402.99,292.22 403.20,292.25 403.41,292.36 403.62,292.40 403.83,292.51 404.04,292.54 404.25,292.65 404.46,292.68 404.68,292.79 404.89,292.82 405.10,292.93 405.31,292.97 405.52,293.08 405.73,293.11 405.94,293.22 406.15,293.25 406.36,293.36 406.57,293.39 406.78,293.50 406.99,293.54 407.21,293.64 407.42,293.68 407.63,293.79 407.84,293.82 408.05,293.93 408.26,293.96 408.47,294.07 408.68,294.10 408.89,294.21 409.10,294.25 409.31,294.36 409.52,294.39 409.74,294.50 409.95,294.53 410.16,294.64 410.37,294.67 410.58,294.78 410.79,294.82 411.00,294.93 411.21,294.96 411.42,295.07 411.63,295.10 411.84,295.21 412.05,295.24 412.26,295.35 412.48,295.39 412.69,295.49 412.90,295.53 413.11,295.64 413.32,295.67 413.53,295.78 413.74,295.81 413.95,295.92 414.16,295.95 414.37,296.06 414.58,296.10 414.79,296.21 415.01,296.24 415.22,296.35 415.43,296.38 415.64,296.49 415.85,296.52 416.06,296.63 416.27,296.67 416.48,296.78 416.69,296.81 416.90,296.92 417.11,296.95 417.32,297.06 417.54,297.09 417.75,297.20 417.96,297.24 418.17,297.34 418.38,297.38 418.59,297.49 418.80,297.52 419.01,297.63 419.22,297.66 419.43,297.77 419.64,297.81 419.85,297.91 420.06,297.95 420.28,298.06 420.49,298.09 420.70,298.20 420.91,298.23 421.12,298.34 421.33,298.37 421.54,298.48 421.75,298.52 421.96,298.63 422.17,298.66 422.38,298.77 422.59,298.80 422.81,298.91 423.02,298.94 423.23,299.05 423.44,299.09 423.65,299.20 423.86,299.23 424.07,299.34 424.28,299.37 424.49,299.48 424.70,299.51 424.91,299.62 425.12,299.66 425.34,299.76 425.55,299.80 425.76,299.91 425.97,299.94 426.18,300.05 426.39,300.08 426.60,300.19 426.81,300.23 427.02,300.33 427.23,300.37 427.44,300.48 427.65,300.51 427.86,300.62 428.08,300.65 428.29,300.76 428.50,300.79 428.71,300.90 428.92,300.94 429.13,301.05 429.34,301.08 429.55,301.19 429.76,301.22 429.97,301.33 430.18,301.36 430.39,301.47 430.61,301.51 430.82,301.62 431.03,301.65 431.24,301.76 431.45,301.79 431.66,301.90 431.87,301.93 432.08,302.04 432.29,302.08 432.50,302.19 432.71,302.22 432.92,302.33 433.14,302.36 433.35,302.47 433.56,302.50 433.77,302.61 433.98,302.65 434.19,302.75 434.40,302.79 434.61,302.90 434.82,302.93 435.03,303.04 435.24,303.07 435.45,303.18 435.66,303.22 435.88,303.32 436.09,303.36 436.30,303.47 436.51,303.50 436.72,303.61 436.93,303.64 437.14,303.75 437.35,303.78 437.56,303.89 437.77,303.93 437.98,304.04 438.19,304.07 438.41,304.18 438.62,304.21 438.83,304.32 439.04,304.35 439.25,304.46 439.46,304.50 439.67,304.61 439.88,304.64 440.09,304.75 440.30,304.78 440.51,304.89 440.72,304.92 440.94,305.03 441.15,305.07 441.36,305.18 441.57,305.21 441.78,305.32 441.99,305.35 442.20,305.46 442.41,305.49 442.62,305.60 442.83,305.64 443.04,305.74 443.25,305.78 443.46,305.89 443.68,305.92 443.89,306.03 444.10,306.06 444.31,306.17 444.52,306.21 444.73,306.31 444.94,306.35 445.15,306.46 445.36,306.49 445.57,306.60 445.78,306.63 445.99,306.74 446.21,306.78 446.42,306.88 446.63,306.92 446.84,307.03 447.05,307.06 447.26,307.17 447.47,307.20 447.68,307.31 447.89,307.35 448.10,307.45 448.31,307.49 448.52,307.60 448.74,307.63 448.95,307.74 449.16,307.77 449.37,307.88 449.58,307.91 449.79,308.02 450.00,308.06 450.21,308.17 450.42,308.20 450.63,308.31 450.84,308.34 451.05,308.45 451.26,308.48 451.48,308.59 451.69,308.63 451.90,308.74 452.11,308.77 452.32,308.88 452.53,308.91 452.74,309.02 452.95,309.05 453.16,309.16 453.37,309.20 453.58,309.31 453.79,309.34 454.01,309.45 454.22,309.48 454.43,309.59 454.64,309.62 454.85,309.73 455.06,309.77 455.27,309.88 455.48,309.91 455.69,310.02 455.90,310.05 456.11,310.16 456.32,310.19 456.54,310.30 456.75,310.34 456.96,310.44 457.17,310.48 457.38,310.59 457.59,310.62 457.80,310.73 458.01,310.76 458.22,310.87 458.43,310.91 458.64,311.01 458.85,311.05 459.06,311.16 459.28,311.19 459.49,311.30 459.70,311.33 459.91,311.44 460.12,311.48 460.33,311.58 460.54,311.62 460.75,311.73 460.96,311.76 461.17,311.87 461.38,311.90 461.59,312.01 461.81,312.05 462.02,312.15 462.23,312.19 462.44,312.30 462.65,312.33 462.86,312.44 463.07,312.47 463.28,312.58 463.49,312.62 463.70,312.72 463.91,312.76 464.12,312.87 464.34,312.90 464.55,313.01 464.76,313.04 464.97,313.15 465.18,313.19 465.39,313.29 465.60,313.33 465.81,313.44 466.02,313.47 466.23,313.58 466.44,313.61 466.65,313.72 466.86,313.76 467.08,313.86 467.29,313.90 467.50,314.01 467.71,314.04 467.92,314.15 468.13,314.18 468.34,314.29 468.55,314.32 468.76,314.43 468.97,314.47 469.18,314.58 469.39,314.61 469.61,314.72 469.82,314.75 470.03,314.86 470.24,314.89 470.45,315.00 470.66,315.04 470.87,315.15 471.08,315.18 471.29,315.29 471.50,315.32 471.71,315.43 471.92,315.46 472.14,315.57 472.35,315.61 472.56,315.72 472.77,315.75 472.98,315.86 473.19,315.89 473.40,316.00 473.61,316.03 473.82,316.14 474.03,316.18 474.24,316.29 474.45,316.32 474.66,316.43 474.88,316.46 475.09,316.57 475.30,316.60 475.51,316.71 475.72,316.75 475.93,316.86 476.14,316.89 476.35,317.00 476.56,317.03 476.77,317.14 476.98,317.17 477.19,317.28 477.41,317.32 477.62,317.43 477.83,317.46 478.04,317.57 478.25,317.60 478.46,317.71 478.67,317.74 478.88,317.85 479.09,317.89 479.30,317.99 479.51,318.03 479.72,318.14 479.94,318.17 480.15,318.28 480.36,318.31 480.57,318.42 480.78,318.46 480.99,318.56 481.20,318.60 481.41,318.71 481.62,318.74 481.83,318.85 482.04,318.88 482.25,318.99 482.46,319.03 482.68,319.13 482.89,319.17 483.10,319.28 483.31,319.31 483.52,319.42 483.73,319.45 483.94,319.56 484.15,319.60 484.36,319.70 484.57,319.74 484.78,319.85 484.99,319.88 485.21,319.99 485.42,320.02 485.63,320.13 485.84,320.17 486.05,320.27 486.26,320.31 486.47,320.42 486.68,320.45 486.89,320.56 487.10,320.59 487.31,320.70 487.52,320.74 487.74,320.84 487.95,320.88 488.16,320.99 488.37,321.02 488.58,321.13 488.79,321.16 489.00,321.27 489.21,321.31 489.42,321.41 489.63,321.45 489.84,321.56 490.05,321.59 490.26,321.70 490.48,321.73 490.69,321.84 490.90,321.88 491.11,321.98 491.32,322.02 491.53,322.13 491.74,322.16 491.95,322.27 492.16,322.30 492.37,322.41 492.58,322.45 492.79,322.55 493.01,322.59 493.22,322.70 493.43,322.73 493.64,322.84 493.85,322.87 494.06,322.98 494.27,323.02 494.48,323.12 494.69,323.16 494.90,323.27 495.11,323.30 495.32,323.41 495.54,323.44 495.75,323.55 495.96,323.59 496.17,323.69 496.38,323.73 496.59,323.84 496.80,323.87 497.01,323.98 497.22,324.01 497.43,324.12 497.64,324.16 497.85,324.26 498.06,324.30 498.28,324.41 498.49,324.44 498.70,324.55 498.91,324.58 499.12,324.69 499.33,324.73 499.54,324.83 499.75,324.87 499.96,324.98 500.17,325.01 500.38,325.12 500.59,325.15 500.81,325.26 501.02,325.30 501.23,325.40 501.44,325.44 501.65,325.55 501.86,325.58 502.07,325.69 502.28,325.72 502.49,325.83 502.70,325.87 502.91,325.97 503.12,326.01 503.34,326.12 503.55,326.15 503.76,326.26 503.97,326.29 504.18,326.40 504.39,326.44 504.60,326.54 504.81,326.58 505.02,326.69 505.23,326.72 505.44,326.83 505.65,326.86 505.86,326.97 506.08,327.01 506.29,327.11 506.50,327.15 506.71,327.26 506.92,327.29 507.13,327.40 507.34,327.43 507.55,327.54 507.76,327.58 507.97,327.68 508.18,327.72 508.39,327.83 508.61,327.86 508.82,327.97 509.03,328.00 509.24,328.11 509.45,328.15 509.66,328.25 509.87,328.29 510.08,328.40 510.29,328.43 510.50,328.54 510.71,328.57 510.92,328.68 511.14,328.72 511.35,328.82 511.56,328.86 511.77,328.97 511.98,329.00 512.19,329.11 512.40,329.14 512.61,329.25 512.82,329.29 513.03,329.39 513.24,329.43 513.45,329.54 513.66,329.57 513.88,329.68 514.09,329.71 514.30,329.82 514.51,329.86 514.72,329.96 514.93,330.00 515.14,330.11 515.35,330.14 515.56,330.25 515.77,330.28 515.98,330.39 516.19,330.43 516.41,330.53 516.62,330.57 516.83,330.68 517.04,330.71 517.25,330.82 517.46,330.85 517.67,330.96 517.88,331.00 518.09,331.11 518.30,331.14 518.51,331.25 518.72,331.28 518.94,331.39 519.15,331.42 519.36,331.53 519.57,331.57 519.78,331.68 519.99,331.71 520.20,331.82 520.41,331.85 520.62,331.96 520.83,331.99 521.04,332.10 521.25,332.14 521.46,332.25 521.68,332.28 521.89,332.39 522.10,332.42 522.31,332.53 522.52,332.56 522.73,332.67 522.94,332.71 523.15,332.82 523.36,332.85 523.57,332.96 523.78,332.99 523.99,333.10 524.21,333.14 524.42,333.24 524.63,333.28 524.84,333.39 525.05,333.42 525.26,333.53 525.47,333.56 525.68,333.67 525.89,333.71 526.10,333.81 526.31,333.85 526.52,333.96 526.74,333.99 526.95,334.10 527.16,334.13 527.37,334.24 527.58,334.28 527.79,334.38 528.00,334.42 528.21,334.53 528.42,334.56 528.63,334.67 528.84,334.70 529.05,334.81 529.26,334.85 529.48,334.95 529.69,334.99 529.90,335.10 530.11,335.13 530.32,335.24 530.53,335.27 530.74,335.38 530.95,335.42 531.16,335.52 531.37,335.56 531.58,335.67 531.79,335.70 532.01,335.81 532.22,335.84 532.43,335.95 532.64,335.99 532.85,336.09 533.06,336.13 533.27,336.24 533.48,336.27 533.69,336.38 533.90,336.41 534.11,336.52 534.32,336.56 534.54,336.66 534.75,336.70 534.96,336.81 535.17,336.84 535.38,336.95 535.59,336.98 535.80,337.09 536.01,337.13 536.22,337.23 536.43,337.27 536.64,337.38 536.85,337.41 537.06,337.52 537.28,337.55 537.49,337.66 537.70,337.70 537.91,337.80 538.12,337.84 538.33,337.95 538.54,337.98 538.75,338.09 538.96,338.12 539.17,338.23 539.38,338.27 539.59,338.37 539.81,338.41 540.02,338.52 540.23,338.55 540.44,338.66 540.65,338.69 540.86,338.80 541.07,338.84 541.28,338.94 541.49,338.98 541.70,339.09 541.91,339.12 542.12,339.23 542.34,339.26 542.55,339.37 542.76,339.41 542.97,339.51 543.18,339.55 543.39,339.66 543.60,339.69 543.81,339.80 544.02,339.83 544.23,339.94 544.44,339.98 544.65,340.09 544.86,340.12 545.08,340.23 545.29,340.26 545.50,340.37 545.71,340.41 545.92,340.51 546.13,340.55 546.34,340.66 546.55,340.69 546.76,340.80 546.97,340.83 547.18,340.94 547.39,340.98 547.61,341.08 547.82,341.12 548.03,341.23 548.24,341.26 548.45,341.37 548.66,341.40 548.87,341.51 549.08,341.55 549.29,341.65 549.50,341.69 549.71,341.80 549.92,341.83 550.14,341.94 550.35,341.97 550.56,342.08 550.77,342.12 550.98,342.22 551.19,342.26 551.40,342.37 551.61,342.40 551.82,342.51 552.03,342.54 552.24,342.65 552.45,342.69 552.66,342.79 552.88,342.83 553.09,342.94 553.30,342.97 553.51,343.08 553.72,343.11 553.93,343.22 554.14,343.26 554.35,343.36 554.56,343.40 554.77,343.51 554.98,343.54 555.19,343.65 555.41,343.68 555.62,343.79 555.83,343.83 556.04,343.93 556.25,343.97 556.46,344.08 556.67,344.11 556.88,344.22 557.09,344.25 557.30,344.36 557.51,344.40 557.72,344.50 557.94,344.54 558.15,344.65 558.36,344.68 558.57,344.79 558.78,344.82 558.99,344.93 559.20,344.97 559.41,345.07 559.62,345.11 559.83,345.22 560.04,345.25 560.25,345.36 560.46,345.39 560.68,345.50 560.89,345.54 561.10,345.65 561.31,345.68 561.52,345.79 561.73,345.82 561.94,345.93 562.15,345.97 562.36,346.07 562.57,346.11 562.78,346.22 562.99,346.25 563.21,346.36 563.42,346.39 563.63,346.50 563.84,346.54 564.05,346.64 564.26,346.68 564.47,346.79 564.68,346.82 564.89,346.93 565.10,346.96 565.31,347.07 565.52,347.11 565.74,347.21 565.95,347.25 566.16,347.36 566.37,347.39 566.58,347.50 566.79,347.53 567.00,347.64 567.21,347.68 567.42,347.78 567.63,347.82 567.84,347.93 568.05,347.96 568.26,348.07 568.48,348.10 568.69,348.21 568.90,348.25 569.11,348.35 569.32,348.39 569.53,348.50 569.74,348.53 569.95,348.64 570.16,348.67 570.37,348.78 570.58,348.82 570.79,348.92 571.01,348.96 571.22,349.07 571.43,349.10 571.64,349.21 571.85,349.24 572.06,349.35 572.27,349.39 572.48,349.49 572.69,349.53 572.90,349.64 573.11,349.67 573.32,349.78 573.54,349.81 573.75,349.92 573.96,349.96 574.17,350.07 574.38,350.10 574.59,350.21 574.80,350.24 575.01,350.35 575.22,350.39 575.43,350.49 575.64,350.53 575.85,350.64 576.06,350.67 576.28,350.78 576.49,350.81 576.70,350.92 576.91,350.96 577.12,351.06 577.33,351.10 577.54,351.21 577.75,351.24 577.96,351.35 578.17,351.38 578.38,351.49 578.59,351.53 578.81,351.63 579.02,351.67 579.23,351.78 579.44,351.81 579.65,351.92 579.86,351.95 580.07,352.06 580.28,352.10 580.49,352.20 580.70,352.24 580.91,352.35 581.12,352.38 581.34,352.49 581.55,352.52 581.76,352.63 581.97,352.67 582.18,352.77 582.39,352.81 582.60,352.92 582.81,352.95 583.02,353.06 583.23,353.09 583.44,353.20 583.65,353.24 583.86,353.34 584.08,353.38 584.29,353.49 584.50,353.52 584.71,353.63 584.92,353.66 585.13,353.77 585.34,353.81 585.55,353.92 585.76,353.95 585.97,354.06 586.18,354.09 586.39,354.20 586.61,354.24 586.82,354.34 587.03,354.38 587.24,354.49 587.45,354.52 587.66,354.63 587.87,354.66 588.08,354.77 588.29,354.81 588.50,354.91 588.71,354.95 588.92,355.06 589.14,355.09 589.35,355.20 589.56,355.23 589.77,355.34 589.98,355.38 590.19,355.48 590.40,355.52 590.61,355.63 590.82,355.66 591.03,355.77 591.24,355.80 591.45,355.91 591.66,355.95 591.88,356.05 592.09,356.09 592.30,356.20 592.51,356.23 592.72,356.34 592.93,356.37 593.14,356.48 593.35,356.52 593.56,356.62 593.77,356.66 593.98,356.77 594.19,356.80 594.41,356.91 594.62,356.94 594.83,357.05 595.04,357.09 595.25,357.19 595.46,357.23 595.67,357.34 595.88,357.37 596.09,357.48 596.30,357.52 596.51,357.62 596.72,357.66 596.94,357.77 597.15,357.80 597.36,357.91 597.57,357.94 597.78,358.05 597.99,358.09 598.20,358.19 598.41,358.23 598.62,358.34 598.83,358.37 599.04,358.48 599.25,358.51 599.46,358.62 599.68,358.66 599.89,358.76 600.10,358.80 600.31,358.91 600.52,358.94 600.73,359.05 600.94,359.08 601.15,359.19 601.36,359.23 601.57,359.33 601.78,359.37 601.99,359.48 602.21,359.51 602.42,359.62 602.63,359.65 602.84,359.76 603.05,359.80 603.26,359.90 603.47,359.94 603.68,360.05 603.89,360.08 604.10,360.19 604.31,360.22 604.52,360.33 604.74,360.37 604.95,360.48 605.16,360.51 605.37,360.62 605.58,360.65 605.79,360.76 606.00,360.80 606.21,360.90 606.42,360.94 606.63,361.05 606.84,361.08 607.05,361.19 607.26,361.22 607.48,361.33 607.69,361.37 607.90,361.47 608.11,361.51 608.32,361.62 608.53,361.65 608.74,361.76 608.95,361.79 609.16,361.90 609.37,361.94 609.58,362.04 609.79,362.08 610.01,362.19 610.22,362.22 610.43,362.33 610.64,362.36 610.85,362.47 611.06,362.51 611.27,362.61 611.48,362.65 611.69,362.76 611.90,362.79 612.11,362.90 612.32,362.93 612.54,363.04 612.75,363.08 612.96,363.18 613.17,363.22 613.38,363.33 613.59,363.36 613.80,363.47 614.01,363.51 614.22,363.61 614.43,363.65 614.64,363.76 614.85,363.79 615.06,363.90 615.28,363.93 615.49,364.04 615.70,364.08 615.91,364.18 616.12,364.22 616.33,364.33 616.54,364.36 616.75,364.47 616.96,364.50 617.17,364.61 617.38,364.65 617.59,364.75 617.81,364.79 618.02,364.90 618.23,364.93 618.44,365.04 618.65,365.07 618.86,365.18 619.07,365.22 619.28,365.32 619.49,365.36 619.70,365.47 619.91,365.50 620.12,365.61 620.34,365.64 620.55,365.75 620.76,365.79 620.97,365.89 621.18,365.93 621.39,366.04 621.60,366.07 621.81,366.18 622.02,366.22 622.23,366.32 622.44,366.36 622.65,366.47 622.86,366.50 623.08,366.61 623.29,366.64 623.50,366.75 623.71,366.79 623.92,366.89 624.13,366.93 624.34,367.04 624.55,367.07 624.76,367.18 624.97,367.21 625.18,367.32 625.39,367.36 625.61,367.46 625.82,367.50 626.03,367.61 626.24,367.64 626.45,367.75 626.66,367.78 626.87,367.89 627.08,367.93 627.29,368.03 627.50,368.07 627.71,368.18 627.92,368.21 628.14,368.32 628.35,368.35 628.56,368.46 628.77,368.50 628.98,368.60 629.19,368.64 629.40,368.75 629.61,368.78 629.82,368.89 630.03,368.93 630.24,369.03 630.45,369.07 630.66,369.18 630.88,369.21 631.09,369.32 631.30,369.35 631.51,369.46 631.72,369.50 631.93,369.60 632.14,369.64 632.35,369.75 632.56,369.78 632.77,369.89 632.98,369.92 633.19,370.03 633.41,370.07 633.62,370.17 633.83,370.21 634.04,370.32 634.25,370.35 634.46,370.46 634.67,370.49 634.88,370.60 635.09,370.64 635.30,370.74 635.51,370.78 635.72,370.89 635.94,370.92 636.15,371.03 636.36,371.06 636.57,371.17 636.78,371.21 636.99,371.31 637.20,371.35 637.41,371.46 637.62,371.49 637.83,371.60 638.04,371.64 638.25,371.74 638.46,371.78 638.68,371.89 638.89,371.92 639.10,372.03 639.31,372.06 639.52,372.17 639.73,372.21 639.94,372.31 640.15,372.35 640.36,372.46 640.57,372.49 640.78,372.60 640.99,372.63 641.21,372.74 641.42,372.78 641.63,372.88 641.84,372.92 642.05,373.03 642.26,373.06 642.47,373.17 642.68,373.20 642.89,373.31 643.10,373.35 643.31,373.45 643.52,373.49 643.74,373.60 643.95,373.63 644.16,373.74 644.37,373.78 644.58,373.88 644.79,373.92 645.00,374.03 645.21,374.06 645.42,374.17 645.63,374.20 645.84,374.31 646.05,374.35 646.26,374.45 646.48,374.49 646.69,374.60 646.90,374.63 647.11,374.74 647.32,374.77 647.53,374.88 647.74,374.92 647.95,375.02 648.16,375.06 648.37,375.17 648.58,375.20 648.79,375.31 649.01,375.34 649.22,375.45 649.43,375.49 649.64,375.59 649.85,375.63 650.06,375.74 650.27,375.77 650.48,375.88 650.69,375.91 650.90,376.02 651.11,376.06 651.32,376.16 651.54,376.20 651.75,376.31 651.96,376.34 652.17,376.45 652.38,376.49 652.59,376.59 652.80,376.63 653.01,376.74 653.22,376.77 653.43,376.88 653.64,376.91 653.85,377.02 654.06,377.06 654.28,377.16 654.49,377.20 654.70,377.31 654.91,377.34 655.12,377.45 655.33,377.48 655.54,377.59 655.75,377.63 655.96,377.73 656.17,377.77 656.38,377.88 656.59,377.91 656.81,378.02 657.02,378.05 657.23,378.16 657.44,378.20 657.65,378.30 657.86,378.34 658.07,378.45 658.28,378.48 658.49,378.59 658.70,378.63 658.91,378.73 659.12,378.77 659.34,378.88 659.55,378.91 659.76,379.02 659.97,379.05 660.18,379.16 660.39,379.20 660.60,379.30 660.81,379.34 661.02,379.45 661.23,379.48 661.44,379.59 661.65,379.62 661.86,379.73 662.08,379.77 662.29,379.87 662.50,379.91 662.71,380.02 662.92,380.05 663.13,380.16 663.34,380.19 663.55,380.30 663.76,380.34 663.97,380.44 664.18,380.48 664.39,380.59 664.61,380.62 664.82,380.73 665.03,380.77 665.24,380.87 665.45,380.91 665.66,381.02 665.87,381.05 666.08,381.16 666.29,381.19 666.50,381.30 666.71,381.34 666.92,381.44 667.14,381.48 667.35,381.59 667.56,381.62 667.77,381.73 667.98,381.76 668.19,381.87 668.40,381.91 668.61,382.01 668.82,382.05 669.03,382.16 669.24,382.19 669.45,382.30 669.66,382.33 669.88,382.44 670.09,382.48 670.30,382.58 670.51,382.62 670.72,382.73 670.93,382.76 671.14,382.87 671.35,382.91 671.56,383.01 671.77,383.05 671.98,383.16 672.19,383.19 672.41,383.30 672.62,383.33 672.83,383.44 673.04,383.48 673.25,383.58 673.46,383.62 673.67,383.73 673.88,383.76 674.09,383.87 674.30,383.90 674.51,384.01 674.72,384.05 674.94,384.15 675.15,384.19 675.36,384.30 675.57,384.33 675.78,384.44 675.99,384.47 676.20,384.58 676.41,384.62 676.62,384.72 676.83,384.76 677.04,384.87 677.25,384.90 677.46,385.01 677.68,385.05 677.89,385.15 678.10,385.19 678.31,385.30 678.52,385.33 678.73,385.44 678.94,385.47 679.15,385.58 679.36,385.62 679.57,385.72 679.78,385.76 679.99,385.87 680.21,385.90 680.42,386.01 680.63,386.04 680.84,386.15 681.05,386.19 681.26,386.29 681.47,386.33 681.68,386.44 681.89,386.47 682.10,386.58 682.31,386.62 682.52,386.72 682.74,386.76 682.95,386.86 683.16,386.90 683.37,387.01 683.58,387.04 683.79,387.15 684.00,387.19 684.21,387.29 684.42,387.33 684.63,387.44 684.84,387.47 685.05,387.58 685.26,387.61 685.48,387.72 685.69,387.76 685.90,387.86 686.11,387.90 686.32,388.01 686.53,388.04 686.74,388.15 686.95,388.18 687.16,388.29 687.37,388.33 687.58,388.43 687.79,388.47 688.01,388.58 688.22,388.61 688.43,388.72 688.64,388.76 688.85,388.86 689.06,388.90 689.27,389.01 689.48,389.04 689.69,389.15 689.90,389.18 690.11,389.29 690.32,389.33 690.54,389.43 690.75,389.47 690.96,389.58 691.17,389.61 691.38,389.72 691.59,389.75 691.80,389.86 692.01,389.90 692.22,390.00 692.43,390.04 692.64,390.15 692.85,390.18 693.06,390.29 693.28,390.32 693.49,390.43 693.70,390.47 693.91,390.57 694.12,390.61 694.33,390.72 694.54,390.75 694.75,390.86 694.96,390.90 695.17,391.00 695.38,391.04 695.59,391.15 695.81,391.18 696.02,391.29 696.23,391.32 696.44,391.43 696.65,391.47 696.86,391.57 697.07,391.61 697.28,391.72 697.49,391.75 697.70,391.86 697.91,391.89 698.12,392.00 698.34,392.04 698.55,392.14 698.76,392.18 698.97,392.29 699.18,392.32 699.39,392.43 699.60,392.47 699.81,392.57 700.02,392.61 700.23,392.72 700.44,392.75 700.65,392.86 700.86,392.89 701.08,393.00 701.29,393.04 701.50,393.14 701.71,393.18 701.92,393.29 702.13,393.32 702.34,393.43 702.55,393.46 702.76,393.57 702.97,393.61 703.18,393.71 703.39,393.75 703.61,393.86 703.82,393.89 704.03,394.00 704.24,394.04 704.45,394.14 704.66,394.18 704.87,394.28 705.08,394.32 705.29,394.43 705.50,394.46 705.71,394.57 705.92,394.61 706.14,394.71 706.35,394.75 706.56,394.86 706.77,394.89 706.98,395.00 707.19,395.03 707.40,395.14 707.61,395.18 707.82,395.28 708.03,395.32 708.24,395.43 708.45,395.46 708.66,395.57 708.88,395.60 709.09,395.71 709.30,395.75 709.51,395.85 709.72,395.89 709.93,396.00 710.14,396.03 710.35,396.14 710.56,396.18 710.77,396.28 710.98,396.32 711.19,396.43 711.41,396.46 711.62,396.57 711.83,396.60 712.04,396.71 712.25,396.75 712.46,396.85 712.67,396.89 712.88,397.00 713.09,397.03 713.30,397.14 713.51,397.17 713.72,397.28 713.94,397.32 714.15,397.42 714.36,397.46 714.57,397.57 714.78,397.60 714.99,397.71 715.20,397.75 715.41,397.85 715.62,397.89 715.83,397.99 716.04,398.03 716.25,398.14 716.46,398.17 716.68,398.28 716.89,398.32 717.10,398.42 717.31,398.46 717.52,398.57 717.73,398.60 717.94,398.71 718.15,398.74 718.36,398.85 718.57,398.89 718.78,398.99 718.99,399.03 719.21,399.14 719.42,399.17 719.63,399.28 719.84,399.32 720.05,399.42 720.26,399.46 720.47,399.56 720.68,399.60 720.89,399.71 721.10,399.74 721.31,399.85 721.52,399.89 721.74,399.99 721.95,400.03 722.16,400.14 722.37,400.17 722.58,400.28 722.79,400.31 723.00,400.42 723.21,400.46 723.42,400.56 723.63,400.60 723.84,400.71 724.05,400.74 724.26,400.85 724.48,400.88 724.69,400.99 724.90,401.03 725.11,401.13 725.32,401.17 725.53,401.28 725.74,401.31 725.95,401.42 726.16,401.46 726.37,401.56 726.58,401.60 726.79,401.71 727.01,401.74 727.22,401.85 727.43,401.88 727.64,401.99 727.85,402.03 728.06,402.13 728.27,402.17 728.48,402.28 728.69,402.31 728.90,402.42 729.11,402.45 729.32,402.56 729.54,402.60 729.75,402.70 729.96,402.74 730.17,402.85 730.38,402.88 730.59,402.99 730.80,403.03 731.01,403.13 731.22,403.17 731.43,403.28 731.64,403.31 731.85,403.42 732.06,403.45 732.28,403.56 732.49,403.60 732.70,403.70 732.91,403.74 733.12,403.85 733.33,403.88 733.54,403.99 733.75,404.02 733.96,404.13 734.17,404.17 734.38,404.27 734.59,404.31 734.81,404.42 735.02,404.45 735.23,404.56 735.44,404.60 735.65,404.70 735.86,404.74 736.07,404.85 736.28,404.88 736.49,404.99 736.70,405.02 736.91,405.13 737.12,405.17 737.34,405.27 737.55,405.31 737.76,405.42 737.97,405.45 738.18,405.56 738.39,405.59 738.60,405.70 738.81,405.74 739.02,405.84 739.23,405.88 739.44,405.99 739.65,406.02 739.86,406.13 740.08,406.17 740.29,406.27 740.50,406.31 740.71,406.42 740.92,406.45 741.13,406.56 741.34,406.59 741.55,406.70 741.76,406.74 741.97,406.84 742.18,406.88 742.39,406.99 742.61,407.02 742.82,407.13 743.03,407.16 743.24,407.27 743.45,407.31 743.66,407.41 743.87,407.45 744.08,407.56 744.29,407.59 744.50,407.70 744.71,407.74 744.92,407.84 745.14,407.88 745.35,407.99 745.56,408.02 745.77,408.13 745.98,408.16 746.19,408.27 746.40,408.31 746.61,408.41 746.82,408.45 747.03,408.56 747.24,408.59 747.45,408.70 747.66,408.73 747.88,408.84 748.09,408.88 748.30,408.98 748.51,409.02 748.72,409.13 748.93,409.16 749.14,409.27 749.35,409.31 749.56,409.41 749.77,409.45 749.98,409.56 750.19,409.59 750.41,409.70 750.62,409.73 750.83,409.84 751.04,409.88 751.25,409.98 751.46,410.02 751.67,410.13 751.88,410.16 752.09,410.27 752.30,410.30 752.51,410.41 752.72,410.45 752.94,410.55 753.15,410.59 753.36,410.70 753.57,410.73 753.78,410.84 753.99,410.88 754.20,410.98 754.41,411.02 754.62,411.13 754.83,411.16 755.04,411.27 755.25,411.30 755.46,411.41 755.68,411.45 755.89,411.55 756.10,411.59 756.31,411.70 756.52,411.73 756.73,411.84 756.94,411.87 757.15,411.98 757.36,412.02 757.57,412.12 757.78,412.16 757.99,412.27 758.21,412.30 758.42,412.41 758.63,412.45 758.84,412.55 759.05,412.59 759.26,412.70 759.47,412.73 759.68,412.84 759.89,412.87 760.10,412.98 760.31,413.02 760.52,413.12 760.74,413.16 760.95,413.27 761.16,413.30 761.37,413.41 761.58,413.44 761.79,413.55 762.00,413.59 762.21,413.69 762.42,413.73 762.63,413.84 762.84,413.87 763.05,413.98 763.26,414.02 763.48,414.12 763.69,414.16 763.90,414.27 764.11,414.30 764.32,414.41 764.53,414.44 764.74,414.55 764.95,414.59 765.16,414.69 765.37,414.73 765.58,414.84 765.79,414.87 766.01,414.98 766.22,415.02 766.43,415.12 766.64,415.16 766.85,415.26 767.06,415.30 767.27,415.41 767.48,415.44 767.69,415.55 767.90,415.59 768.11,415.69 768.32,415.73 768.54,415.84 768.75,415.87 768.96,415.98 769.17,416.01 769.38,416.12 769.59,416.16 769.80,416.26 770.01,416.30 770.22,416.41 770.43,416.44 770.64,416.55 770.85,416.59 771.06,416.69 771.28,416.73 771.49,416.83 771.70,416.87 771.91,416.98 772.12,417.01 772.33,417.12 772.54,417.16 772.75,417.26 772.96,417.30 773.17,417.41 773.38,417.44 773.59,417.55 773.81,417.58 774.02,417.69 774.23,417.73 774.44,417.83 774.65,417.87 774.86,417.98 775.07,418.01 775.28,418.12 775.49,418.16 775.70,418.26 775.91,418.30 776.12,418.41 776.34,418.44 776.55,418.55 776.76,418.58 776.97,418.69 777.18,418.73 777.39,418.83 777.60,418.87 777.81,418.98 778.02,419.01 778.23,419.12 778.44,419.15 778.65,419.26 778.86,419.30 779.08,419.40 779.29,419.44 779.50,419.55 779.71,419.58 779.92,419.69 780.13,419.73 780.34,419.83 780.55,419.87 780.76,419.98 780.97,420.01 781.18,420.12 781.39,420.15 781.61,420.26 781.82,420.30 782.03,420.40 782.24,420.44 782.45,420.55 782.66,420.58 782.87,420.69 783.08,420.73 783.29,420.83 783.50,420.87 783.71,420.97 783.92,421.01 784.14,421.12 784.35,421.15 784.56,421.26 784.77,421.30 784.98,421.40 785.19,421.44 785.40,421.55 785.61,421.58 785.82,421.69 786.03,421.72 786.24,421.83 786.45,421.87 786.66,421.97 786.88,422.01 787.09,422.12 787.30,422.15 787.51,422.26 787.72,422.30 787.93,422.40 788.14,422.44 788.35,422.55 788.56,422.58 788.77,422.69 788.98,422.72 789.19,422.83 789.41,422.87 789.62,422.97 789.83,423.01 790.04,423.12 790.25,423.15 790.46,423.26 790.67,423.29 790.88,423.40 791.09,423.44 791.30,423.54 791.51,423.58 791.72,423.69 791.94,423.72 792.15,423.83 792.36,423.87 792.57,423.97 792.78,424.01 792.99,424.12 793.20,424.15 793.41,424.26 793.62,424.29 793.83,424.40 794.04,424.44 794.25,424.54 794.46,424.58 794.68,424.69 794.89,424.72 795.10,424.83 795.31,424.87 795.52,424.97 795.73,425.01 795.94,425.11 796.15,425.15 796.36,425.26 796.57,425.29 796.78,425.40 796.99,425.44 797.21,425.54 797.42,425.58 797.63,425.69 797.84,425.72 798.05,425.83 798.26,425.86 798.47,425.97 798.68,426.01 798.89,426.11 799.10,426.15 799.31,426.26 799.52,426.29 799.74,426.40 799.95,426.44 800.16,426.54 800.37,426.58 800.58,426.69 800.79,426.72 801.00,426.83 801.21,426.86 801.42,426.97 801.63,427.01 801.84,427.11 802.05,427.15 802.26,427.26 802.48,427.29 802.69,427.40 802.90,427.44 803.11,427.54 803.32,427.58 803.53,427.68 803.74,427.72 803.95,427.83 804.16,427.86 804.37,427.97 804.58,428.01 804.79,428.11 805.01,428.15 805.22,428.26 805.43,428.29 805.64,428.40 805.85,428.43 806.06,428.54 806.27,428.58 806.48,428.68 806.69,428.72 806.90,428.83 807.11,428.86 807.32,428.97 807.54,429.01 807.75,429.11 807.96,429.15 808.17,429.26 808.38,429.29 808.59,429.40 808.80,429.43 809.01,429.54 809.22,429.58 809.43,429.68 809.64,429.72 809.85,429.83 810.06,429.86 810.28,429.97 810.49,430.00 810.70,430.11 810.91,430.15 811.12,430.25 811.33,430.29 811.54,430.40 811.75,430.43 811.96,430.54 812.17,430.58 812.38,430.68 812.59,430.72 812.81,430.83 813.02,430.86 813.23,430.97 813.44,431.00 813.65,431.11 813.86,431.15 814.07,431.25 814.28,431.29 814.49,431.40 814.70,431.43 814.91,431.54 815.12,431.58 815.34,431.68 815.55,431.72 815.76,431.82 815.97,431.86 816.18,431.97 816.39,432.00 816.60,432.11 816.81,432.15 817.02,432.25 817.23,432.29 817.44,432.40 817.65,432.43 817.86,432.54 818.08,432.57 818.29,432.68 818.50,432.72 818.71,432.82 818.92,432.86 819.13,432.97 819.34,433.00 819.55,433.11 819.76,433.15 819.97,433.25 820.18,433.29 820.39,433.40 820.61,433.43 820.82,433.54 821.03,433.57 821.24,433.68 821.45,433.72 821.66,433.82 821.87,433.86 822.08,433.97 822.29,434.00 822.50,434.11 822.71,434.15 822.92,434.25 823.14,434.29 823.35,434.40 823.56,434.43 823.77,434.54 823.98,434.57 824.19,434.68 824.40,434.72 824.61,434.82 824.82,434.86 825.03,434.97 825.24,435.00 825.45,435.11 825.66,435.15 825.88,435.25 826.09,435.29 826.30,435.39 826.51,435.43 826.72,435.54 826.93,435.57 827.14,435.68 827.35,435.72 827.56,435.82 827.77,435.86 827.98,435.97 828.19,436.00 828.41,436.11 828.62,436.14 828.83,436.25 829.04,436.29 829.25,436.39 829.46,436.43 829.67,436.54 829.88,436.57 830.09,436.68 830.30,436.72 830.51,436.82 830.72,436.86 830.94,436.97 831.15,437.00 831.36,437.11 831.57,437.14 831.78,437.25 831.99,437.29 832.20,437.39 832.41,437.43 832.62,437.54 832.83,437.57 833.04,437.68 833.25,437.72 833.46,437.82 833.68,437.86 833.89,437.96 834.10,438.00 834.31,438.11 834.52,438.14 834.73,438.25 834.94,438.29 835.15,438.39 835.36,438.43 835.57,438.54 835.78,438.57 835.99,438.68 836.21,438.71 836.42,438.82 836.63,438.86 836.84,438.96 837.05,439.00 837.26,439.11 837.47,439.14 837.68,439.25 837.89,439.29 838.10,439.39 838.31,439.43 838.52,439.54 838.74,439.57 838.95,439.68 839.16,439.71 839.37,439.82 839.58,439.86 839.79,439.96 840.00,440.00 "/>
<text x="60.0" y="35.0" font-size="22" font-family="Arial">Residual history</text>
<text x="415.0" y="485.0" font-size="16" font-family="Arial">Iteration</text>
<text x="15" y="295.0" font-size="16" font-family="Arial" transform="rotate(-90 15,295.0)">log10 residual</text>
</svg>
